<svg width="25" height="25" viewBox="0 0 25 25" fill="none" xmlns="http://www.w3.org/2000/svg">
<rect width="25" height="25" fill="#1E1E1E"/>
<rect width="834" height="1194" transform="translate(-268 -33)" fill="url(#paint0_linear_0_1)"/>
<rect x="-268" y="-33" width="834" height="90" fill="#2791C2"/>
<rect x="-13" y="-13" width="386" height="50" rx="5" fill="white"/>
<mask id="path-3-inside-1_0_1" fill="white">
<path d="M10.8118 20.7891C13.0257 20.7886 15.1758 20.0475 16.9198 18.6837L22.403 24.1666L24.1667 22.403L18.6835 16.9201C20.0481 15.1761 20.7897 13.0256 20.7902 10.8112C20.7902 5.30959 16.3136 0.833252 10.8118 0.833252C5.30991 0.833252 0.833328 5.30959 0.833328 10.8112C0.833328 16.3127 5.30991 20.7891 10.8118 20.7891ZM10.8118 3.32773C14.9391 3.32773 18.2956 6.68405 18.2956 10.8112C18.2956 14.9383 14.9391 18.2946 10.8118 18.2946C6.68444 18.2946 3.32794 14.9383 3.32794 10.8112C3.32794 6.68405 6.68444 3.32773 10.8118 3.32773Z"/>
</mask>
<path d="M10.8118 20.7891C13.0257 20.7886 15.1758 20.0475 16.9198 18.6837L22.403 24.1666L24.1667 22.403L18.6835 16.9201C20.0481 15.1761 20.7897 13.0256 20.7902 10.8112C20.7902 5.30959 16.3136 0.833252 10.8118 0.833252C5.30991 0.833252 0.833328 5.30959 0.833328 10.8112C0.833328 16.3127 5.30991 20.7891 10.8118 20.7891ZM10.8118 3.32773C14.9391 3.32773 18.2956 6.68405 18.2956 10.8112C18.2956 14.9383 14.9391 18.2946 10.8118 18.2946C6.68444 18.2946 3.32794 14.9383 3.32794 10.8112C3.32794 6.68405 6.68444 3.32773 10.8118 3.32773Z" fill="white" stroke="#BCBCBC" stroke-width="3" mask="url(#path-3-inside-1_0_1)"/>
<defs>
<linearGradient id="paint0_linear_0_1" x1="417" y1="0" x2="417" y2="1194" gradientUnits="userSpaceOnUse">
<stop stop-color="#010101" stop-opacity="0"/>
<stop offset="1" stop-color="#010101"/>
</linearGradient>
</defs>
</svg>
